<mxfile host="65bd71144e">
    <diagram id="ohgwgI82hTvLFhEl1N_d" name="ページ1">
        <mxGraphModel dx="1013" dy="771" grid="1" gridSize="10" guides="1" tooltips="1" connect="1" arrows="1" fold="1" page="1" pageScale="1" pageWidth="827" pageHeight="1169" math="0" shadow="0">
            <root>
                <mxCell id="0"/>
                <mxCell id="1" parent="0"/>
                <mxCell id="2" value="&lt;font style=&quot;font-size: 30px&quot;&gt;AAAAABBBBBBCCCCCCCCOFFEESPLAAAAAASHUUUM&lt;/font&gt;" style="text;html=1;align=center;verticalAlign=middle;resizable=0;points=[];autosize=1;strokeColor=none;fillColor=none;" vertex="1" parent="1">
                    <mxGeometry x="140" y="90" width="820" height="30" as="geometry"/>
                </mxCell>
                <mxCell id="4" value="" style="shape=flexArrow;endArrow=classic;html=1;fontSize=30;" edge="1" parent="1">
                    <mxGeometry width="50" height="50" relative="1" as="geometry">
                        <mxPoint x="520" y="140" as="sourcePoint"/>
                        <mxPoint x="520" y="180" as="targetPoint"/>
                    </mxGeometry>
                </mxCell>
                <mxCell id="5" value="A5B6C8O1F2E2S1P1L1A6S1H1U3M1" style="text;html=1;align=center;verticalAlign=middle;resizable=0;points=[];autosize=1;strokeColor=none;fillColor=none;fontSize=30;" vertex="1" parent="1">
                    <mxGeometry x="270" y="200" width="540" height="40" as="geometry"/>
                </mxCell>
                <mxCell id="6" value="ランレングス圧縮" style="text;html=1;align=center;verticalAlign=middle;resizable=0;points=[];autosize=1;strokeColor=none;fillColor=none;fontSize=30;" vertex="1" parent="1">
                    <mxGeometry x="140" y="30" width="260" height="40" as="geometry"/>
                </mxCell>
            </root>
        </mxGraphModel>
    </diagram>
</mxfile>